<svg id="desktop-computer" xmlns="http://www.w3.org/2000/svg" width="24" height="24" viewBox="0 0 24 24">
  <path id="Caminho_132" data-name="Caminho 132" d="M15.7,5.469A3.8,3.8,0,0,0,15.75,5a3.8,3.8,0,0,0-.047-.469l.9-.682a.5.5,0,0,0,.131-.649l-.809-1.4a.5.5,0,0,0-.627-.211l-1.037.437a3.715,3.715,0,0,0-.819-.487l-.138-1.1a.5.5,0,0,0-.5-.438H11.192a.5.5,0,0,0-.5.438l-.138,1.1a3.738,3.738,0,0,0-.82.487L8.7,1.589a.5.5,0,0,0-.628.211L7.266,3.2a.5.5,0,0,0,.131.649l.9.682A3.616,3.616,0,0,0,8.25,5a3.8,3.8,0,0,0,.047.469l-.9.682a.5.5,0,0,0-.131.649l.808,1.4a.5.5,0,0,0,.628.211l1.037-.438a3.715,3.715,0,0,0,.819.487l.138,1.1a.5.5,0,0,0,.5.439h1.617a.5.5,0,0,0,.5-.438l.138-1.1a3.731,3.731,0,0,0,.819-.487l1.037.437a.5.5,0,0,0,.628-.211l.808-1.4a.5.5,0,0,0-.131-.649ZM12,7a2,2,0,1,1,2-2A2,2,0,0,1,12,7Z" transform="translate(1.355)" fill="#fff"/>
  <path id="Caminho_133" data-name="Caminho 133" d="M22.25,4H19a1,1,0,0,0,0,2h3V18H2V6H5A1,1,0,1,0,5,4H1.75A1.751,1.751,0,0,0,0,5.75v12.5A1.751,1.751,0,0,0,1.75,20H10v2H8a1,1,0,0,0,0,2h8a1,1,0,0,0,0-2H14V20h8.25A1.751,1.751,0,0,0,24,18.25V5.75A1.751,1.751,0,0,0,22.25,4Z" fill="#fff"/>
</svg>
