<svg id="settings_2_" data-name="settings (2)" xmlns="http://www.w3.org/2000/svg" width="20.743" height="20.743" viewBox="0 0 20.743 20.743">
  <g id="Grupo_167" data-name="Grupo 167" transform="translate(6.077 6.158)">
    <g id="Grupo_166" data-name="Grupo 166">
      <path id="Caminho_126" data-name="Caminho 126" d="M154.254,152a4.254,4.254,0,1,0,4.254,4.254A4.259,4.259,0,0,0,154.254,152Zm0,7.293a3.039,3.039,0,1,1,3.039-3.039A3.042,3.042,0,0,1,154.254,159.293Z" transform="translate(-150 -152)"/>
    </g>
  </g>
  <path id="Caminho_144" data-name="Caminho 144" d="M20.279,8.606l-2.426-.589a7.863,7.863,0,0,0-.51-1.234l1.245-2.074a.608.608,0,0,0-.091-.742L16.777,2.248a.608.608,0,0,0-.742-.091L13.96,3.4a7.856,7.856,0,0,0-1.234-.51L12.137.464A.608.608,0,0,0,11.546,0H9.116a.608.608,0,0,0-.591.464L7.936,2.891A7.86,7.86,0,0,0,6.7,3.4L4.628,2.156a.608.608,0,0,0-.742.091L2.166,3.966a.608.608,0,0,0-.091.742L3.32,6.783A7.856,7.856,0,0,0,2.809,8.02L.46,8.607A.608.608,0,0,0,0,9.2v2.431a.608.608,0,0,0,.46.59l2.348.587a7.86,7.86,0,0,0,.511,1.237L2.075,16.115a.608.608,0,0,0,.091.742l1.719,1.719a.608.608,0,0,0,.742.091L6.7,17.423a7.862,7.862,0,0,0,1.237.511l.587,2.348a.608.608,0,0,0,.59.46h2.431a.608.608,0,0,0,.59-.46l.587-2.348a7.86,7.86,0,0,0,1.237-.511l2.074,1.245a.608.608,0,0,0,.742-.091L18.5,16.858a.608.608,0,0,0,.091-.742l-1.245-2.074a7.859,7.859,0,0,0,.51-1.234l2.426-.589a.608.608,0,0,0,.464-.591V9.2A.608.608,0,0,0,20.279,8.606Zm-.751,2.544-2.3.559a.608.608,0,0,0-.444.433,6.64,6.64,0,0,1-.665,1.609.608.608,0,0,0,0,.617l1.18,1.966-1.048,1.048L14.287,16.2a.608.608,0,0,0-.617,0,6.644,6.644,0,0,1-1.609.665.608.608,0,0,0-.432.44l-.556,2.226H9.59L9.034,17.3a.608.608,0,0,0-.432-.44A6.643,6.643,0,0,1,6.992,16.2a.608.608,0,0,0-.617,0l-1.966,1.18L3.361,16.334l1.18-1.966a.608.608,0,0,0,0-.617,6.638,6.638,0,0,1-.665-1.609.608.608,0,0,0-.44-.432l-2.226-.557V9.671l2.226-.557a.608.608,0,0,0,.44-.432,6.641,6.641,0,0,1,.665-1.609.608.608,0,0,0,0-.617L3.361,4.49,4.409,3.442l1.966,1.18a.608.608,0,0,0,.617,0A6.64,6.64,0,0,1,8.6,3.962a.608.608,0,0,0,.433-.444l.559-2.3h1.475l.559,2.3a.608.608,0,0,0,.433.444,6.64,6.64,0,0,1,1.609.665.608.608,0,0,0,.617,0l1.966-1.18L17.3,4.49l-1.18,1.966a.608.608,0,0,0,0,.617,6.639,6.639,0,0,1,.665,1.609.608.608,0,0,0,.444.433l2.3.559Z"/>
</svg>
