<svg id="Grupo_178" data-name="Grupo 178" xmlns="http://www.w3.org/2000/svg" width="15.41" height="16.556" viewBox="0 0 15.41 16.556">
  <g id="Grupo_176" data-name="Grupo 176" transform="translate(14.757 6.001)">
    <path id="Caminho_2279" data-name="Caminho 2279" d="M474.637,186.335a.327.327,0,1,1,.321-.263A.33.33,0,0,1,474.637,186.335Z" transform="translate(-474.31 -185.681)" fill="#fff"/>
  </g>
  <g id="Grupo_177" data-name="Grupo 177" transform="translate(5.942 3.663)">
    <path id="Caminho_2280" data-name="Caminho 2280" d="M207.835,119.275a1.4,1.4,0,0,1-.993-.411l-1.572-1.572a1.2,1.2,0,0,1,1.692-1.692l.874.874,2.2-2.2a1.2,1.2,0,0,1,1.692,1.692l-2.9,2.9A1.4,1.4,0,0,1,207.835,119.275Zm-1.72-3.37a.541.541,0,0,0-.383.924L207.3,118.4a.751.751,0,0,0,1.061,0l2.9-2.9a.542.542,0,1,0-.766-.766l-2.431,2.431a.327.327,0,0,1-.463,0l-1.105-1.105A.54.54,0,0,0,206.116,115.9Z" transform="translate(-204.92 -113.925)" fill="#fff"/>
  </g>
  <path id="Caminho_2281" data-name="Caminho 2281" d="M32.685,7.492a.323.323,0,0,0-.394.232q-.012.046-.025.092a5.708,5.708,0,0,1-3.653,3.846l-.033-.034-.76-.759a1.686,1.686,0,0,0-2.377,0l-.507.506a3.928,3.928,0,0,1-3.049-3.041l.506-.505a1.676,1.676,0,0,0,0-2.374L21.632,4.7a1.739,1.739,0,0,0-.209-.178,5.674,5.674,0,0,1,10.884.426.323.323,0,1,0,.628-.155,6.332,6.332,0,0,0-2.209-3.425,6.326,6.326,0,0,0-7.733-.087,6.359,6.359,0,0,0-2.16,2.967A1.738,1.738,0,0,0,19.18,4.7l-.733.731a2.259,2.259,0,0,0-.454,2.819,4.163,4.163,0,0,0,.545.837l.016.019.552.606.01.011,4.431,4.422.011.01.607.551.019.016a4.174,4.174,0,0,0,.838.544,3.22,3.22,0,0,0,1.235.282,2.12,2.12,0,0,0,1.524-.672l1.341,1.341a1.17,1.17,0,0,0,1.654-1.654l-.753-.753L31,12.829a.323.323,0,0,0-.457-.457l-1.205,1.205a.323.323,0,0,0,0,.457l.981.981a.523.523,0,1,1-.74.74l-1.34-1.34.339-.338a1.733,1.733,0,0,0,.39-1.855,6.321,6.321,0,0,0,3.919-4.233q.014-.051.028-.1a.323.323,0,0,0-.232-.394Zm-4.562,6.127-.733.731a1.627,1.627,0,0,1-2.118.314,3.487,3.487,0,0,1-.681-.45L24,13.677,19.579,9.266l-.539-.591A3.475,3.475,0,0,1,18.589,8,1.618,1.618,0,0,1,18.9,5.885l.733-.731a1.091,1.091,0,0,1,1.539,0l.76.759a1.03,1.03,0,0,1,0,1.459l-.645.643a.323.323,0,0,0-.081.323A5.467,5.467,0,0,0,22.5,10.763a5.484,5.484,0,0,0,2.431,1.288.323.323,0,0,0,.322-.081l.645-.643a1.038,1.038,0,0,1,1.464,0l.76.759a1.083,1.083,0,0,1,0,1.534Z" transform="translate(-17.71 0)" fill="#fff"/>
</svg>
