<svg xmlns="http://www.w3.org/2000/svg" width="13.989" height="16.556" viewBox="0 0 13.989 16.556">
  <g id="building" transform="translate(0)">
    <g id="Grupo_175" data-name="Grupo 175" transform="translate(0)">
      <g id="Grupo_174" data-name="Grupo 174" transform="translate(0)">
        <path id="Caminho_2255" data-name="Caminho 2255" d="M152.335,65.651h1.34a.309.309,0,0,0,.335-.275v-1.1a.309.309,0,0,0-.335-.275h-1.34a.309.309,0,0,0-.335.275v1.1A.309.309,0,0,0,152.335,65.651Zm.335-1.1h.67v.55h-.67Z" transform="translate(-149.39 -61.799)" fill="#fff"/>
        <path id="Caminho_2256" data-name="Caminho 2256" d="M216.335,65.651h1.34a.309.309,0,0,0,.335-.275v-1.1a.309.309,0,0,0-.335-.275h-1.34a.31.31,0,0,0-.335.275v1.1A.31.31,0,0,0,216.335,65.651Zm.335-1.1h.67v.55h-.67Z" transform="translate(-210.01 -61.799)" fill="#fff"/>
        <path id="Caminho_2257" data-name="Caminho 2257" d="M280.335,65.651h1.34a.309.309,0,0,0,.335-.275v-1.1a.309.309,0,0,0-.335-.275h-1.34a.309.309,0,0,0-.335.275v1.1A.309.309,0,0,0,280.335,65.651Zm.335-1.1h.67v.55h-.67Z" transform="translate(-270.631 -61.799)" fill="#fff"/>
        <path id="Caminho_2258" data-name="Caminho 2258" d="M152.335,129.651h1.34a.309.309,0,0,0,.335-.275v-1.1a.309.309,0,0,0-.335-.275h-1.34a.309.309,0,0,0-.335.275v1.1A.309.309,0,0,0,152.335,129.651Zm.335-1.1h.67v.55h-.67Z" transform="translate(-149.39 -123.584)" fill="#fff"/>
        <path id="Caminho_2259" data-name="Caminho 2259" d="M216.335,129.651h1.34a.309.309,0,0,0,.335-.275v-1.1a.309.309,0,0,0-.335-.275h-1.34a.31.31,0,0,0-.335.275v1.1A.309.309,0,0,0,216.335,129.651Zm.335-1.1h.67v.55h-.67Z" transform="translate(-210.01 -123.584)" fill="#fff"/>
        <path id="Caminho_2260" data-name="Caminho 2260" d="M280.335,129.651h1.34a.309.309,0,0,0,.335-.275v-1.1a.309.309,0,0,0-.335-.275h-1.34a.309.309,0,0,0-.335.275v1.1A.309.309,0,0,0,280.335,129.651Zm.335-1.1h.67v.55h-.67Z" transform="translate(-270.631 -123.584)" fill="#fff"/>
        <path id="Caminho_2261" data-name="Caminho 2261" d="M152.335,193.651h1.34a.309.309,0,0,0,.335-.275v-1.1a.309.309,0,0,0-.335-.275h-1.34a.309.309,0,0,0-.335.275v1.1A.309.309,0,0,0,152.335,193.651Zm.335-1.1h.67v.55h-.67Z" transform="translate(-149.39 -185.375)" fill="#fff"/>
        <path id="Caminho_2262" data-name="Caminho 2262" d="M216.335,193.651h1.34a.309.309,0,0,0,.335-.275v-1.1a.309.309,0,0,0-.335-.275h-1.34a.309.309,0,0,0-.335.275v1.1A.309.309,0,0,0,216.335,193.651Zm.335-1.1h.67v.55h-.67Z" transform="translate(-210.01 -185.375)" fill="#fff"/>
        <path id="Caminho_2263" data-name="Caminho 2263" d="M280.335,193.651h1.34a.309.309,0,0,0,.335-.275v-1.1a.309.309,0,0,0-.335-.275h-1.34a.309.309,0,0,0-.335.275v1.1A.309.309,0,0,0,280.335,193.651Zm.335-1.1h.67v.55h-.67Z" transform="translate(-270.631 -185.375)" fill="#fff"/>
        <path id="Caminho_2264" data-name="Caminho 2264" d="M152.335,257.651h1.34a.309.309,0,0,0,.335-.275v-1.1a.309.309,0,0,0-.335-.275h-1.34a.309.309,0,0,0-.335.275v1.1A.309.309,0,0,0,152.335,257.651Zm.335-1.1h.67v.55h-.67Z" transform="translate(-149.39 -247.167)" fill="#fff"/>
        <path id="Caminho_2265" data-name="Caminho 2265" d="M216.335,257.651h1.34a.309.309,0,0,0,.335-.275v-1.1a.309.309,0,0,0-.335-.275h-1.34a.309.309,0,0,0-.335.275v1.1A.309.309,0,0,0,216.335,257.651Zm.335-1.1h.67v.55h-.67Z" transform="translate(-210.01 -247.167)" fill="#fff"/>
        <path id="Caminho_2266" data-name="Caminho 2266" d="M280.335,257.651h1.34a.309.309,0,0,0,.335-.275v-1.1a.309.309,0,0,0-.335-.275h-1.34a.309.309,0,0,0-.335.275v1.1A.309.309,0,0,0,280.335,257.651Zm.335-1.1h.67v.55h-.67Z" transform="translate(-270.631 -247.167)" fill="#fff"/>
        <path id="Caminho_2267" data-name="Caminho 2267" d="M152.335,321.651h1.34a.309.309,0,0,0,.335-.275v-1.1a.309.309,0,0,0-.335-.275h-1.34a.309.309,0,0,0-.335.275v1.1A.31.31,0,0,0,152.335,321.651Zm.335-1.1h.67v.55h-.67Z" transform="translate(-149.39 -308.959)" fill="#fff"/>
        <path id="Caminho_2268" data-name="Caminho 2268" d="M216.335,321.651h1.34a.31.31,0,0,0,.335-.275v-1.1a.309.309,0,0,0-.335-.275h-1.34a.309.309,0,0,0-.335.275v1.1A.31.31,0,0,0,216.335,321.651Zm.335-1.1h.67v.55h-.67Z" transform="translate(-210.01 -308.959)" fill="#fff"/>
        <path id="Caminho_2269" data-name="Caminho 2269" d="M280.335,321.651h1.34a.309.309,0,0,0,.335-.275v-1.1a.309.309,0,0,0-.335-.275h-1.34a.309.309,0,0,0-.335.275v1.1A.309.309,0,0,0,280.335,321.651Zm.335-1.1h.67v.55h-.67Z" transform="translate(-270.631 -308.959)" fill="#fff"/>
        <path id="Caminho_2270" data-name="Caminho 2270" d="M63.058,16V1.656h.411c.227,0,.411-.124.411-.276V.276C63.881.124,63.7,0,63.469,0H50.3c-.227,0-.411.124-.411.276v1.1c0,.152.184.276.411.276h.411V16h0v.552H63.058V16ZM50.715.552H63.058V1.1H50.715ZM56.475,16H54.829V13.8h1.646Zm2.469,0H57.3V13.8h1.646Zm3.291,0H59.767V13.521c0-.152-.184-.276-.411-.276H54.418c-.227,0-.411.124-.411.276V16H51.538V1.656h10.7Z" transform="translate(-49.892)" fill="#fff"/>
      </g>
    </g>
  </g>
</svg>
