<svg id="flow-chart" xmlns="http://www.w3.org/2000/svg" width="24" height="24" viewBox="0 0 24 24">
  <path id="flow-chart-2" data-name="flow-chart" d="M23.25,15H21V11.25a.75.75,0,0,0-.75-.75h-7.5V9h3a.75.75,0,0,0,.75-.75V.75A.75.75,0,0,0,15.75,0H8.25A.75.75,0,0,0,7.5.75v7.5A.75.75,0,0,0,8.25,9h3v1.5H3.75a.75.75,0,0,0-.75.75V15H.75a.749.749,0,0,0-.75.75v7.5A.75.75,0,0,0,.75,24h7.5A.75.75,0,0,0,9,23.25v-7.5A.75.75,0,0,0,8.25,15H4.5V12h15v3H15.75a.75.75,0,0,0-.75.75v7.5a.75.75,0,0,0,.75.75h7.5a.75.75,0,0,0,.75-.75v-7.5A.75.75,0,0,0,23.25,15ZM9,1.5h6v6H9Zm-1.5,21h-6v-6h6Zm15,0h-6v-6h6Z" transform="translate(0 0)" fill="#fff"/>
</svg>
