<svg id="information" xmlns="http://www.w3.org/2000/svg" width="21.328" height="21.328" viewBox="0 0 21.328 21.328">
  <g id="Grupo_106" data-name="Grupo 106">
    <g id="Grupo_105" data-name="Grupo 105">
      <circle id="Elipse_6" data-name="Elipse 6" cx="1.041" cy="1.041" r="1.041" transform="translate(9.622 14.725)" fill="#fff"/>
      <path id="Caminho_123" data-name="Caminho 123" d="M10.664,0A10.664,10.664,0,1,0,21.328,10.664,10.658,10.658,0,0,0,10.664,0Zm0,19.662a9,9,0,1,1,9-9A8.993,8.993,0,0,1,10.664,19.662Z" fill="#fff"/>
      <path id="Caminho_124" data-name="Caminho 124" d="M179.332,128.5A3.336,3.336,0,0,0,176,131.832a.833.833,0,1,0,1.666,0,1.666,1.666,0,1,1,1.666,1.666.833.833,0,0,0-.833.833v2.083a.833.833,0,0,0,1.666,0V135.06a3.333,3.333,0,0,0-.833-6.56Z" transform="translate(-168.669 -123.147)" fill="#fff"/>
    </g>
  </g>
</svg>
