<svg id="skill-development" xmlns="http://www.w3.org/2000/svg" width="16.556" height="16.556" viewBox="0 0 16.556 16.556">
  <path id="Caminho_2278" data-name="Caminho 2278" d="M14.616,3.913V1.94H12.643a1.94,1.94,0,0,0-3.88,0H7.308a7.308,7.308,0,1,0,7.308,7.308V7.793a1.94,1.94,0,1,0,0-3.88ZM6.823,2.929V5.17a3.278,3.278,0,0,1,.97-.287.97.97,0,0,1,0,1.94,3.279,3.279,0,0,1-.97-.287V8.763h-.97a1.94,1.94,0,0,0-3.88,0H.988A6.348,6.348,0,0,1,6.823,2.929ZM.988,9.733H3.23a3.275,3.275,0,0,1-.287-.97.97.97,0,0,1,1.94,0,3.277,3.277,0,0,1-.287.97H6.823v.97a1.94,1.94,0,1,0,0,3.88v.984A6.348,6.348,0,0,1,.988,9.733Zm6.8,5.834V13.326a3.278,3.278,0,0,1-.97.287.97.97,0,0,1,0-1.94,3.279,3.279,0,0,1,.97.287V9.733h.97a1.94,1.94,0,1,0,3.88,0h.984A6.348,6.348,0,0,1,7.793,15.567Zm6.823-8.745a3.753,3.753,0,0,1-.97-.3v2.24H11.386a3.276,3.276,0,0,1,.287.97.97.97,0,1,1-1.94,0,3.277,3.277,0,0,1,.287-.97H7.793v-.97a1.94,1.94,0,0,0,0-3.88v-1h2.24a3.777,3.777,0,0,1-.3-.97.97.97,0,1,1,1.94,0,3.754,3.754,0,0,1-.3.97h2.273V5.183a3.775,3.775,0,0,1,.97-.3.97.97,0,1,1,0,1.94Z" fill="#fff"/>
</svg>
