<svg id="menu" xmlns="http://www.w3.org/2000/svg" width="25.182" height="25.182" viewBox="0 0 25.182 25.182">
  <g id="Grupo_169" data-name="Grupo 169">
    <g id="Grupo_168" data-name="Grupo 168">
      <path id="Caminho_127" data-name="Caminho 127" d="M9.232,0H2.18A2.183,2.183,0,0,0,0,2.18V9.232a2.183,2.183,0,0,0,2.18,2.18H9.232a2.183,2.183,0,0,0,2.18-2.18V2.18A2.183,2.183,0,0,0,9.232,0Zm.407,9.232a.407.407,0,0,1-.407.407H2.18a.407.407,0,0,1-.407-.407V2.18a.407.407,0,0,1,.407-.407H9.232a.407.407,0,0,1,.407.407V9.232Z" fill="#fff"/>
      <path id="Caminho_128" data-name="Caminho 128" d="M171.635,0h-7.052a2.183,2.183,0,0,0-2.18,2.18V9.232a2.183,2.183,0,0,0,2.18,2.18h7.052a2.183,2.183,0,0,0,2.18-2.18V2.18A2.183,2.183,0,0,0,171.635,0Zm.407,9.232a.407.407,0,0,1-.407.407h-7.052a.407.407,0,0,1-.407-.407V2.18a.407.407,0,0,1,.407-.407h7.052a.407.407,0,0,1,.407.407Z" transform="translate(-148.633)" fill="#fff"/>
      <path id="Caminho_129" data-name="Caminho 129" d="M9.232,162.4H2.18A2.183,2.183,0,0,0,0,164.582v7.052a2.183,2.183,0,0,0,2.18,2.18H9.232a2.183,2.183,0,0,0,2.18-2.18v-7.052A2.183,2.183,0,0,0,9.232,162.4Zm.407,9.232a.407.407,0,0,1-.407.407H2.18a.407.407,0,0,1-.407-.407v-7.052a.407.407,0,0,1,.407-.407H9.232a.407.407,0,0,1,.407.407v7.052Z" transform="translate(0 -148.632)" fill="#fff"/>
      <path id="Caminho_130" data-name="Caminho 130" d="M171.635,162.4h-7.052a2.183,2.183,0,0,0-2.18,2.18v7.052a2.183,2.183,0,0,0,2.18,2.18h7.052a2.183,2.183,0,0,0,2.18-2.18v-7.052A2.183,2.183,0,0,0,171.635,162.4Zm.407,9.232a.407.407,0,0,1-.407.407h-7.052a.407.407,0,0,1-.407-.407v-7.052a.407.407,0,0,1,.407-.407h7.052a.407.407,0,0,1,.407.407Z" transform="translate(-148.633 -148.632)" fill="#fff"/>
    </g>
  </g>
</svg>
