<svg xmlns="http://www.w3.org/2000/svg" width="14.228" height="16.556" viewBox="0 0 14.228 16.556">
  <g id="file_1_" data-name="file (1)" transform="translate(0)">
    <path id="Caminho_2274" data-name="Caminho 2274" d="M14.583,3.461,11.2.139A.485.485,0,0,0,10.86,0H2.309A1.812,1.812,0,0,0,.5,1.81V14.746a1.812,1.812,0,0,0,1.81,1.81H12.918a1.812,1.812,0,0,0,1.81-1.81V3.807a.485.485,0,0,0-.145-.346Zm-3.237-1.82,1.711,1.681H11.5a.154.154,0,0,1-.154-.154Zm1.573,13.944H2.309a.841.841,0,0,1-.84-.84V1.81a.841.841,0,0,1,.84-.84h8.066v2.2A1.126,1.126,0,0,0,11.5,4.292h2.258V14.746a.841.841,0,0,1-.84.84Zm0,0" transform="translate(-0.499 0)" fill="#fff"/>
    <path id="Caminho_2275" data-name="Caminho 2275" d="M105.514,238H98.677a.485.485,0,0,0,0,.97h6.837a.485.485,0,1,0,0-.97Zm0,0" transform="translate(-95.033 -230.304)" fill="#fff"/>
    <path id="Caminho_2276" data-name="Caminho 2276" d="M98.676,298.97h5.575a.485.485,0,0,0,0-.97H98.676a.485.485,0,1,0,0,.97Zm0,0" transform="translate(-95.032 -288.364)" fill="#fff"/>
    <path id="Caminho_2277" data-name="Caminho 2277" d="M104.924,358H98.676a.485.485,0,1,0,0,.97h6.248a.485.485,0,1,0,0-.97Zm0,0" transform="translate(-95.032 -346.424)" fill="#fff"/>
  </g>
</svg>
