<svg id="layers" xmlns="http://www.w3.org/2000/svg" width="22.125" height="22.125" viewBox="0 0 22.125 22.125">
  <g id="Grupo_172" data-name="Grupo 172">
    <path id="Caminho_139" data-name="Caminho 139" d="M22.03,10.689a.79.79,0,0,0-.32-.32L18.6,8.694,21.71,7.018a.79.79,0,0,0,0-1.391L11.437.1a.79.79,0,0,0-.749,0L.416,5.628a.79.79,0,0,0,0,1.391L3.527,8.694.416,10.369a.79.79,0,0,0,0,1.391l3.111,1.675L.416,15.11a.79.79,0,0,0,0,1.391l10.273,5.531a.79.79,0,0,0,.749,0L21.71,16.5a.79.79,0,0,0,0-1.391L18.6,13.435,21.71,11.76A.79.79,0,0,0,22.03,10.689ZM2.457,6.323l8.606-4.634,8.606,4.634-8.606,4.634Zm17.212,9.482-8.606,4.634L2.457,15.805l2.736-1.473,5.5,2.959a.79.79,0,0,0,.749,0l5.5-2.959ZM11.063,15.7,2.457,11.064,5.192,9.591l5.5,2.959a.79.79,0,0,0,.749,0l5.5-2.959,2.736,1.473Z" transform="translate(0 -0.002)" fill="#fff"/>
  </g>
</svg>
