<svg id="dashboard" xmlns="http://www.w3.org/2000/svg" width="22.125" height="22.125" viewBox="0 0 22.125 22.125">
  <path id="Caminho_140" data-name="Caminho 140" d="M8.527,7.375H1.613A1.615,1.615,0,0,1,0,5.762V1.613A1.615,1.615,0,0,1,1.613,0H8.527a1.615,1.615,0,0,1,1.613,1.613V5.762A1.615,1.615,0,0,1,8.527,7.375ZM1.613,1.383a.231.231,0,0,0-.23.23V5.762a.231.231,0,0,0,.23.231H8.527a.231.231,0,0,0,.231-.231V1.613a.231.231,0,0,0-.231-.23Zm0,0" transform="translate(0 0)" fill="#fff"/>
  <path id="Caminho_141" data-name="Caminho 141" d="M8.527,226.238H1.613A1.615,1.615,0,0,1,0,224.625v-9.68a1.615,1.615,0,0,1,1.613-1.613H8.527a1.615,1.615,0,0,1,1.613,1.613v9.68A1.615,1.615,0,0,1,8.527,226.238ZM1.613,214.715a.231.231,0,0,0-.23.231v9.68a.231.231,0,0,0,.23.23H8.527a.231.231,0,0,0,.231-.23v-9.68a.231.231,0,0,0-.231-.231Zm0,0" transform="translate(0 -204.113)" fill="#fff"/>
  <path id="Caminho_142" data-name="Caminho 142" d="M285.86,348.707h-6.914a1.615,1.615,0,0,1-1.613-1.613v-4.148a1.615,1.615,0,0,1,1.613-1.613h6.914a1.615,1.615,0,0,1,1.613,1.613v4.148A1.615,1.615,0,0,1,285.86,348.707Zm-6.914-5.992a.231.231,0,0,0-.231.231v4.148a.231.231,0,0,0,.231.23h6.914a.231.231,0,0,0,.23-.23v-4.148a.231.231,0,0,0-.23-.231Zm0,0" transform="translate(-265.348 -326.582)" fill="#fff"/>
  <path id="Caminho_143" data-name="Caminho 143" d="M285.86,12.906h-6.914a1.615,1.615,0,0,1-1.613-1.613V1.613A1.615,1.615,0,0,1,278.945,0h6.914a1.615,1.615,0,0,1,1.613,1.613v9.68A1.615,1.615,0,0,1,285.86,12.906ZM278.945,1.383a.231.231,0,0,0-.231.23v9.68a.231.231,0,0,0,.231.231h6.914a.231.231,0,0,0,.23-.231V1.613a.231.231,0,0,0-.23-.23Zm0,0" transform="translate(-265.348 0)" fill="#fff"/>
</svg>
